{
    "asset" : {
        "generator" : "Khronos glTF Blender I/O v1.8.19",
        "version" : "2.0"
    },
    "scene" : 0,
    "scenes" : [
        {
            "name" : "Scene",
            "nodes" : [
                0
            ]
        }
    ],
    "nodes" : [
        {
            "mesh" : 0,
            "name" : "Cylinder",
            "scale" : [
                0.38037240505218506,
                0.38037240505218506,
                0.38037240505218506
            ]
        }
    ],
    "animations" : [
        {
            "channels" : [
                {
                    "sampler" : 0,
                    "target" : {
                        "node" : 0,
                        "path" : "translation"
                    }
                },
                {
                    "sampler" : 1,
                    "target" : {
                        "node" : 0,
                        "path" : "rotation"
                    }
                },
                {
                    "sampler" : 2,
                    "target" : {
                        "node" : 0,
                        "path" : "scale"
                    }
                }
            ],
            "name" : "CylinderAction",
            "samplers" : [
                {
                    "input" : 8,
                    "interpolation" : "LINEAR",
                    "output" : 9
                },
                {
                    "input" : 8,
                    "interpolation" : "LINEAR",
                    "output" : 10
                },
                {
                    "input" : 11,
                    "interpolation" : "STEP",
                    "output" : 12
                }
            ]
        }
    ],
    "materials" : [
        {
            "doubleSided" : true,
            "name" : "Material.001",
            "pbrMetallicRoughness" : {
                "baseColorTexture" : {
                    "index" : 0
                },
                "metallicFactor" : 0.6800000071525574,
                "roughnessFactor" : 0.6709089875221252
            }
        },
        {
            "doubleSided" : true,
            "emissiveFactor" : [
                0.1663747915688205,
                1,
                0.077537447008174
            ],
            "name" : "glass",
            "pbrMetallicRoughness" : {
                "baseColorFactor" : [
                    0.056830842047929764,
                    0.7088289856910706,
                    0.02037506178021431,
                    1
                ],
                "metallicFactor" : 0.8618181943893433,
                "roughnessFactor" : 0.4490908980369568
            }
        }
    ],
    "meshes" : [
        {
            "name" : "Cylinder",
            "primitives" : [
                {
                    "attributes" : {
                        "POSITION" : 0,
                        "NORMAL" : 1,
                        "TEXCOORD_0" : 2
                    },
                    "indices" : 3,
                    "material" : 0
                },
                {
                    "attributes" : {
                        "POSITION" : 4,
                        "NORMAL" : 5,
                        "TEXCOORD_0" : 6
                    },
                    "indices" : 7,
                    "material" : 1
                }
            ]
        }
    ],
    "textures" : [
        {
            "sampler" : 0,
            "source" : 0
        }
    ],
    "images" : [
        {
            "bufferView" : 4,
            "mimeType" : "image/png",
            "name" : "syringe uvss"
        }
    ],
    "accessors" : [
        {
            "bufferView" : 0,
            "componentType" : 5126,
            "count" : 353,
            "max" : [
                0.26725709438323975,
                5.237742900848389,
                0.30860191583633423
            ],
            "min" : [
                -0.26725709438323975,
                1.8063948154449463,
                -0.30860188603401184
            ],
            "type" : "VEC3"
        },
        {
            "bufferView" : 1,
            "componentType" : 5126,
            "count" : 353,
            "type" : "VEC3"
        },
        {
            "bufferView" : 2,
            "componentType" : 5126,
            "count" : 353,
            "type" : "VEC2"
        },
        {
            "bufferView" : 3,
            "componentType" : 5123,
            "count" : 1062,
            "type" : "SCALAR"
        },
        {
            "bufferView" : 5,
            "componentType" : 5126,
            "count" : 14,
            "max" : [
                0.12118005752563477,
                3.6019577980041504,
                0.13992667198181152
            ],
            "min" : [
                -0.12118005752563477,
                2.776442527770996,
                -0.13992667198181152
            ],
            "type" : "VEC3"
        },
        {
            "bufferView" : 6,
            "componentType" : 5126,
            "count" : 14,
            "type" : "VEC3"
        },
        {
            "bufferView" : 7,
            "componentType" : 5126,
            "count" : 14,
            "type" : "VEC2"
        },
        {
            "bufferView" : 8,
            "componentType" : 5123,
            "count" : 36,
            "type" : "SCALAR"
        },
        {
            "bufferView" : 9,
            "componentType" : 5126,
            "count" : 45,
            "max" : [
                1.8333333333333333
            ],
            "min" : [
                0
            ],
            "type" : "SCALAR"
        },
        {
            "bufferView" : 10,
            "componentType" : 5126,
            "count" : 45,
            "type" : "VEC3"
        },
        {
            "bufferView" : 11,
            "componentType" : 5126,
            "count" : 45,
            "type" : "VEC4"
        },
        {
            "bufferView" : 12,
            "componentType" : 5126,
            "count" : 1,
            "max" : [
                0.9166666666666666
            ],
            "min" : [
                0.9166666666666666
            ],
            "type" : "SCALAR"
        },
        {
            "bufferView" : 13,
            "componentType" : 5126,
            "count" : 1,
            "type" : "VEC3"
        }
    ],
    "bufferViews" : [
        {
            "buffer" : 0,
            "byteLength" : 4236,
            "byteOffset" : 0
        },
        {
            "buffer" : 0,
            "byteLength" : 4236,
            "byteOffset" : 4236
        },
        {
            "buffer" : 0,
            "byteLength" : 2824,
            "byteOffset" : 8472
        },
        {
            "buffer" : 0,
            "byteLength" : 2124,
            "byteOffset" : 11296
        },
        {
            "buffer" : 0,
            "byteLength" : 13333,
            "byteOffset" : 13420
        },
        {
            "buffer" : 0,
            "byteLength" : 168,
            "byteOffset" : 26756
        },
        {
            "buffer" : 0,
            "byteLength" : 168,
            "byteOffset" : 26924
        },
        {
            "buffer" : 0,
            "byteLength" : 112,
            "byteOffset" : 27092
        },
        {
            "buffer" : 0,
            "byteLength" : 72,
            "byteOffset" : 27204
        },
        {
            "buffer" : 0,
            "byteLength" : 180,
            "byteOffset" : 27276
        },
        {
            "buffer" : 0,
            "byteLength" : 540,
            "byteOffset" : 27456
        },
        {
            "buffer" : 0,
            "byteLength" : 720,
            "byteOffset" : 27996
        },
        {
            "buffer" : 0,
            "byteLength" : 4,
            "byteOffset" : 28716
        },
        {
            "buffer" : 0,
            "byteLength" : 12,
            "byteOffset" : 28720
        }
    ],
    "samplers" : [
        {
            "magFilter" : 9729,
            "minFilter" : 9987
        }
    ],
    "buffers" : [
        {
            "byteLength" : 28732,
            "uri" : "data:application/octet-stream;base64,"
        }
    ]
}
