{
    "asset" : {
        "generator" : "Khronos glTF Blender I/O v1.8.19",
        "version" : "2.0"
    },
    "scene" : 0,
    "scenes" : [
        {
            "name" : "Scene",
            "nodes" : [
                0,
                1,
                2,
                3,
                4,
                5
            ]
        }
    ],
    "nodes" : [
        {
            "mesh" : 0,
            "name" : "Plane"
        },
        {
            "mesh" : 1,
            "name" : "column",
            "translation" : [
                0.22239427268505096,
                0,
                0.06842900812625885
            ]
        },
        {
            "mesh" : 2,
            "name" : "column.001",
            "translation" : [
                3.4385581016540527,
                0,
                -2.6516242027282715
            ]
        },
        {
            "mesh" : 3,
            "name" : "column.002",
            "translation" : [
                -3.0621981620788574,
                0,
                -2.6174097061157227
            ]
        },
        {
            "mesh" : 4,
            "name" : "column.003",
            "translation" : [
                -3.0964126586914062,
                0,
                2.8055899143218994
            ]
        },
        {
            "mesh" : 5,
            "name" : "column.004",
            "translation" : [
                3.4043431282043457,
                0,
                2.839804172515869
            ]
        }
    ],
    "materials" : [
        {
            "doubleSided" : true,
            "name" : "walls",
            "normalTexture" : {
                "index" : 0
            },
            "pbrMetallicRoughness" : {
                "baseColorTexture" : {
                    "index" : 1
                },
                "metallicFactor" : 0
            }
        },
        {
            "doubleSided" : true,
            "name" : "floor",
            "pbrMetallicRoughness" : {
                "baseColorTexture" : {
                    "index" : 2
                },
                "metallicFactor" : 0.17454545199871063,
                "roughnessFactor" : 0.31818199157714844
            }
        },
        {
            "doubleSided" : true,
            "name" : "ceiling",
            "normalTexture" : {
                "index" : 3
            },
            "pbrMetallicRoughness" : {
                "baseColorTexture" : {
                    "index" : 4
                },
                "metallicFactor" : 0
            }
        },
        {
            "doubleSided" : true,
            "name" : "bricks",
            "normalTexture" : {
                "index" : 5
            },
            "pbrMetallicRoughness" : {
                "baseColorTexture" : {
                    "index" : 6
                },
                "metallicFactor" : 0
            }
        }
    ],
    "meshes" : [
        {
            "name" : "Plane",
            "primitives" : [
                {
                    "attributes" : {
                        "POSITION" : 0,
                        "NORMAL" : 1,
                        "TEXCOORD_0" : 2
                    },
                    "indices" : 3,
                    "material" : 0
                },
                {
                    "attributes" : {
                        "POSITION" : 4,
                        "NORMAL" : 5,
                        "TEXCOORD_0" : 6
                    },
                    "indices" : 7,
                    "material" : 1
                },
                {
                    "attributes" : {
                        "POSITION" : 8,
                        "NORMAL" : 9,
                        "TEXCOORD_0" : 10
                    },
                    "indices" : 11,
                    "material" : 2
                }
            ]
        },
        {
            "name" : "Plane.001",
            "primitives" : [
                {
                    "attributes" : {
                        "POSITION" : 12,
                        "NORMAL" : 13,
                        "TEXCOORD_0" : 14
                    },
                    "indices" : 15,
                    "material" : 3
                }
            ]
        },
        {
            "name" : "Plane.002",
            "primitives" : [
                {
                    "attributes" : {
                        "POSITION" : 16,
                        "NORMAL" : 17,
                        "TEXCOORD_0" : 18
                    },
                    "indices" : 15,
                    "material" : 3
                }
            ]
        },
        {
            "name" : "Plane.003",
            "primitives" : [
                {
                    "attributes" : {
                        "POSITION" : 19,
                        "NORMAL" : 20,
                        "TEXCOORD_0" : 21
                    },
                    "indices" : 15,
                    "material" : 3
                }
            ]
        },
        {
            "name" : "Plane.004",
            "primitives" : [
                {
                    "attributes" : {
                        "POSITION" : 22,
                        "NORMAL" : 23,
                        "TEXCOORD_0" : 24
                    },
                    "indices" : 15,
                    "material" : 3
                }
            ]
        },
        {
            "name" : "Plane.005",
            "primitives" : [
                {
                    "attributes" : {
                        "POSITION" : 25,
                        "NORMAL" : 26,
                        "TEXCOORD_0" : 27
                    },
                    "indices" : 15,
                    "material" : 3
                }
            ]
        }
    ],
    "textures" : [
        {
            "sampler" : 0,
            "source" : 0
        },
        {
            "sampler" : 0,
            "source" : 1
        },
        {
            "sampler" : 0,
            "source" : 2
        },
        {
            "sampler" : 0,
            "source" : 3
        },
        {
            "sampler" : 0,
            "source" : 4
        },
        {
            "sampler" : 0,
            "source" : 5
        },
        {
            "sampler" : 0,
            "source" : 6
        }
    ],
    "images" : [
        {
            "bufferView" : 4,
            "mimeType" : "image/png",
            "name" : "wallpaper texture_n"
        },
        {
            "bufferView" : 5,
            "mimeType" : "image/png",
            "name" : "wallpaper texture_01"
        },
        {
            "bufferView" : 10,
            "mimeType" : "image/png",
            "name" : "floor tiles"
        },
        {
            "bufferView" : 15,
            "mimeType" : "image/png",
            "name" : "ceiling_n"
        },
        {
            "bufferView" : 16,
            "mimeType" : "image/png",
            "name" : "ceiling"
        },
        {
            "bufferView" : 21,
            "mimeType" : "image/png",
            "name" : "brikks_n"
        },
        {
            "bufferView" : 22,
            "mimeType" : "image/png",
            "name" : "brikks"
        }
    ],
    "accessors" : [
        {
            "bufferView" : 0,
            "componentType" : 5126,
            "count" : 80,
            "max" : [
                2.5,
                3,
                4.75
            ],
            "min" : [
                -20.531753540039062,
                0,
                -4.75
            ],
            "type" : "VEC3"
        },
        {
            "bufferView" : 1,
            "componentType" : 5126,
            "count" : 80,
            "type" : "VEC3"
        },
        {
            "bufferView" : 2,
            "componentType" : 5126,
            "count" : 80,
            "type" : "VEC2"
        },
        {
            "bufferView" : 3,
            "componentType" : 5123,
            "count" : 120,
            "type" : "SCALAR"
        },
        {
            "bufferView" : 6,
            "componentType" : 5126,
            "count" : 26,
            "max" : [
                2.5,
                0,
                4.75
            ],
            "min" : [
                -20.531753540039062,
                0,
                -4.75
            ],
            "type" : "VEC3"
        },
        {
            "bufferView" : 7,
            "componentType" : 5126,
            "count" : 26,
            "type" : "VEC3"
        },
        {
            "bufferView" : 8,
            "componentType" : 5126,
            "count" : 26,
            "type" : "VEC2"
        },
        {
            "bufferView" : 9,
            "componentType" : 5123,
            "count" : 54,
            "type" : "SCALAR"
        },
        {
            "bufferView" : 11,
            "componentType" : 5126,
            "count" : 32,
            "max" : [
                2.5,
                3,
                4.75
            ],
            "min" : [
                -20.531753540039062,
                3,
                -4.75
            ],
            "type" : "VEC3"
        },
        {
            "bufferView" : 12,
            "componentType" : 5126,
            "count" : 32,
            "type" : "VEC3"
        },
        {
            "bufferView" : 13,
            "componentType" : 5126,
            "count" : 32,
            "type" : "VEC2"
        },
        {
            "bufferView" : 14,
            "componentType" : 5123,
            "count" : 54,
            "type" : "SCALAR"
        },
        {
            "bufferView" : 17,
            "componentType" : 5126,
            "count" : 72,
            "max" : [
                -15.024170875549316,
                3,
                0.4367471933364868
            ],
            "min" : [
                -15.890196800231934,
                0,
                -0.5632528066635132
            ],
            "type" : "VEC3"
        },
        {
            "bufferView" : 18,
            "componentType" : 5126,
            "count" : 72,
            "type" : "VEC3"
        },
        {
            "bufferView" : 19,
            "componentType" : 5126,
            "count" : 72,
            "type" : "VEC2"
        },
        {
            "bufferView" : 20,
            "componentType" : 5123,
            "count" : 108,
            "type" : "SCALAR"
        },
        {
            "bufferView" : 23,
            "componentType" : 5126,
            "count" : 72,
            "max" : [
                -15.024170875549316,
                3,
                0.4367471933364868
            ],
            "min" : [
                -15.890196800231934,
                0,
                -0.5632528066635132
            ],
            "type" : "VEC3"
        },
        {
            "bufferView" : 24,
            "componentType" : 5126,
            "count" : 72,
            "type" : "VEC3"
        },
        {
            "bufferView" : 25,
            "componentType" : 5126,
            "count" : 72,
            "type" : "VEC2"
        },
        {
            "bufferView" : 26,
            "componentType" : 5126,
            "count" : 72,
            "max" : [
                -15.024170875549316,
                3,
                0.4367471933364868
            ],
            "min" : [
                -15.890196800231934,
                0,
                -0.5632528066635132
            ],
            "type" : "VEC3"
        },
        {
            "bufferView" : 27,
            "componentType" : 5126,
            "count" : 72,
            "type" : "VEC3"
        },
        {
            "bufferView" : 28,
            "componentType" : 5126,
            "count" : 72,
            "type" : "VEC2"
        },
        {
            "bufferView" : 29,
            "componentType" : 5126,
            "count" : 72,
            "max" : [
                -15.024170875549316,
                3,
                0.4367471933364868
            ],
            "min" : [
                -15.890196800231934,
                0,
                -0.5632528066635132
            ],
            "type" : "VEC3"
        },
        {
            "bufferView" : 30,
            "componentType" : 5126,
            "count" : 72,
            "type" : "VEC3"
        },
        {
            "bufferView" : 31,
            "componentType" : 5126,
            "count" : 72,
            "type" : "VEC2"
        },
        {
            "bufferView" : 32,
            "componentType" : 5126,
            "count" : 72,
            "max" : [
                -15.024170875549316,
                3,
                0.4367471933364868
            ],
            "min" : [
                -15.890196800231934,
                0,
                -0.5632528066635132
            ],
            "type" : "VEC3"
        },
        {
            "bufferView" : 33,
            "componentType" : 5126,
            "count" : 72,
            "type" : "VEC3"
        },
        {
            "bufferView" : 34,
            "componentType" : 5126,
            "count" : 72,
            "type" : "VEC2"
        }
    ],
    "bufferViews" : [
        {
            "buffer" : 0,
            "byteLength" : 960,
            "byteOffset" : 0
        },
        {
            "buffer" : 0,
            "byteLength" : 960,
            "byteOffset" : 960
        },
        {
            "buffer" : 0,
            "byteLength" : 640,
            "byteOffset" : 1920
        },
        {
            "buffer" : 0,
            "byteLength" : 240,
            "byteOffset" : 2560
        },
        {
            "buffer" : 0,
            "byteLength" : 86643,
            "byteOffset" : 2800
        },
        {
            "buffer" : 0,
            "byteLength" : 13085,
            "byteOffset" : 89444
        },
        {
            "buffer" : 0,
            "byteLength" : 312,
            "byteOffset" : 102532
        },
        {
            "buffer" : 0,
            "byteLength" : 312,
            "byteOffset" : 102844
        },
        {
            "buffer" : 0,
            "byteLength" : 208,
            "byteOffset" : 103156
        },
        {
            "buffer" : 0,
            "byteLength" : 108,
            "byteOffset" : 103364
        },
        {
            "buffer" : 0,
            "byteLength" : 11980,
            "byteOffset" : 103472
        },
        {
            "buffer" : 0,
            "byteLength" : 384,
            "byteOffset" : 115452
        },
        {
            "buffer" : 0,
            "byteLength" : 384,
            "byteOffset" : 115836
        },
        {
            "buffer" : 0,
            "byteLength" : 256,
            "byteOffset" : 116220
        },
        {
            "buffer" : 0,
            "byteLength" : 108,
            "byteOffset" : 116476
        },
        {
            "buffer" : 0,
            "byteLength" : 87374,
            "byteOffset" : 116584
        },
        {
            "buffer" : 0,
            "byteLength" : 25584,
            "byteOffset" : 203960
        },
        {
            "buffer" : 0,
            "byteLength" : 864,
            "byteOffset" : 229544
        },
        {
            "buffer" : 0,
            "byteLength" : 864,
            "byteOffset" : 230408
        },
        {
            "buffer" : 0,
            "byteLength" : 576,
            "byteOffset" : 231272
        },
        {
            "buffer" : 0,
            "byteLength" : 216,
            "byteOffset" : 231848
        },
        {
            "buffer" : 0,
            "byteLength" : 83751,
            "byteOffset" : 232064
        },
        {
            "buffer" : 0,
            "byteLength" : 18355,
            "byteOffset" : 315816
        },
        {
            "buffer" : 0,
            "byteLength" : 864,
            "byteOffset" : 334172
        },
        {
            "buffer" : 0,
            "byteLength" : 864,
            "byteOffset" : 335036
        },
        {
            "buffer" : 0,
            "byteLength" : 576,
            "byteOffset" : 335900
        },
        {
            "buffer" : 0,
            "byteLength" : 864,
            "byteOffset" : 336476
        },
        {
            "buffer" : 0,
            "byteLength" : 864,
            "byteOffset" : 337340
        },
        {
            "buffer" : 0,
            "byteLength" : 576,
            "byteOffset" : 338204
        },
        {
            "buffer" : 0,
            "byteLength" : 864,
            "byteOffset" : 338780
        },
        {
            "buffer" : 0,
            "byteLength" : 864,
            "byteOffset" : 339644
        },
        {
            "buffer" : 0,
            "byteLength" : 576,
            "byteOffset" : 340508
        },
        {
            "buffer" : 0,
            "byteLength" : 864,
            "byteOffset" : 341084
        },
        {
            "buffer" : 0,
            "byteLength" : 864,
            "byteOffset" : 341948
        },
        {
            "buffer" : 0,
            "byteLength" : 576,
            "byteOffset" : 342812
        }
    ],
    "samplers" : [
        {
            "magFilter" : 9729,
            "minFilter" : 9987
        }
    ],
    "buffers" : [
        {
            "byteLength" : 343388,
            "uri" : "data:application/octet-stream;base64,"
        }
    ]
}
